<svg width="32" height="28" viewBox="0 0 32 28" fill="none" xmlns="http://www.w3.org/2000/svg">
<path d="M1.83331 3.51667C1.83331 2.72326 1.83331 2.32656 1.98772 2.02351C2.12354 1.75695 2.34026 1.54023 2.60683 1.40441C2.90987 1.25 3.30657 1.25 4.09998 1.25H27.9C28.6934 1.25 29.0901 1.25 29.3931 1.40441C29.6597 1.54023 29.8764 1.75695 30.0122 2.02351C30.1666 2.32656 30.1666 2.72326 30.1666 3.51667V4.46497C30.1666 4.84577 30.1666 5.03617 30.1201 5.21321C30.0789 5.3701 30.011 5.51875 29.9194 5.65266C29.8161 5.80378 29.6723 5.92848 29.3845 6.17787L20.3238 14.0305C20.036 14.2799 19.8922 14.4046 19.7888 14.5557C19.6973 14.6896 19.6294 14.8382 19.5882 14.9951C19.5416 15.1722 19.5416 15.3626 19.5416 15.7434V23.1494C19.5416 23.4264 19.5416 23.5649 19.497 23.6847C19.4575 23.7905 19.3933 23.8854 19.3097 23.9613C19.2151 24.0473 19.0865 24.0987 18.8292 24.2016L14.0126 26.1283C13.4919 26.3366 13.2315 26.4407 13.0225 26.3973C12.8398 26.3593 12.6794 26.2507 12.5763 26.0951C12.4583 25.9172 12.4583 25.6368 12.4583 25.076V15.7434C12.4583 15.3626 12.4583 15.1722 12.4118 14.9951C12.3705 14.8382 12.3027 14.6896 12.2111 14.5557C12.1078 14.4046 11.9639 14.2799 11.6762 14.0305L2.61547 6.17787C2.32771 5.92848 2.18383 5.80378 2.08051 5.65266C1.98895 5.51875 1.92108 5.3701 1.87984 5.21321C1.83331 5.03617 1.83331 4.84577 1.83331 4.46497V3.51667Z" fill="#436EB2" stroke="#436EB2" stroke-width="2" stroke-linecap="round" stroke-linejoin="round"/>
</svg>
